<?xml version="1.0" encoding="utf-8"?>
<svg version="1.1" id="Layer_1" xmlns="http://www.w3.org/2000/svg" xmlns:xlink="http://www.w3.org/1999/xlink" x="0px" y="0px"
	 viewBox="0 0 60 19" style="enable-background:new 0 0 60 19;" xml:space="preserve">
<style type="text/css">.st0{fill:#333333;}</style>
<path class="st0" d="M54.17,0l-6.21,9.8V1.44L48.87,0h-0.91h-4.92h0l-6.21,9.8V0h-4.92v4.55C30.43,1.64,27.47,0,23.51,0H16.3v12.02
	h-2.18V0H7.62L0,12.02v4.38h9.2V19h4.92v-2.6h5.14c1.2,0,2.18-0.98,2.18-2.19V4.38h1.81c2.96,0,4.58,1.15,4.58,5.12
	s-1.63,5.12-4.44,5.12h-0.63c-1.2,0-2.18,0.98-2.18,2.19V19h2.18h0.82c3.91,0,6.85-1.64,8.34-4.55V19h4.92l6.21-9.8V19h4.92L60,0
	H54.17z M9.2,12.02H5.06v-0.15l4.1-6.53H9.2V12.02z"/>
</svg>
